<mxfile host="Electron" agent="Mozilla/5.0 (Macintosh; Intel Mac OS X 10_15_7) AppleWebKit/537.36 (KHTML, like Gecko) draw.io/26.2.15 Chrome/134.0.6998.205 Electron/35.2.1 Safari/537.36" version="26.2.15">
  <diagram id="kgpKYQtTHZ0yAKxKKP6v" name="Page-1">
    <mxGraphModel dx="598" dy="471" grid="1" gridSize="10" guides="1" tooltips="1" connect="1" arrows="1" fold="1" page="1" pageScale="1" pageWidth="850" pageHeight="1100" math="0" shadow="0">
      <root>
        <mxCell id="0" />
        <mxCell id="1" parent="0" />
        <mxCell id="3nuBFxr9cyL0pnOWT2aG-1" value="admission-nginx" style="shape=umlLifeline;perimeter=lifelinePerimeter;container=1;collapsible=0;recursiveResize=0;rounded=0;shadow=0;strokeWidth=1;" parent="1" vertex="1">
          <mxGeometry x="120" y="80" width="100" height="230" as="geometry" />
        </mxCell>
        <mxCell id="3nuBFxr9cyL0pnOWT2aG-2" value="" style="points=[];perimeter=orthogonalPerimeter;rounded=0;shadow=0;strokeWidth=1;" parent="3nuBFxr9cyL0pnOWT2aG-1" vertex="1">
          <mxGeometry x="45" y="70" width="10" height="150" as="geometry" />
        </mxCell>
        <mxCell id="3nuBFxr9cyL0pnOWT2aG-3" value="" style="verticalAlign=bottom;startArrow=oval;endArrow=block;startSize=8;shadow=0;strokeWidth=2;fillColor=#a20025;strokeColor=#6F0000;" parent="3nuBFxr9cyL0pnOWT2aG-1" target="3nuBFxr9cyL0pnOWT2aG-2" edge="1">
          <mxGeometry relative="1" as="geometry">
            <mxPoint x="20" y="70" as="sourcePoint" />
          </mxGeometry>
        </mxCell>
        <mxCell id="nrGuxkYsUYxpYzXSqwnY-12" value="" style="shape=image;verticalLabelPosition=bottom;labelBackgroundColor=default;verticalAlign=top;aspect=fixed;imageAspect=0;image=https://upload.wikimedia.org/wikipedia/commons/thumb/c/c5/Nginx_logo.svg/512px-Nginx_logo.svg.png;" parent="3nuBFxr9cyL0pnOWT2aG-1" vertex="1">
          <mxGeometry x="15.629999999999995" y="-9.999999999999986" width="68.74" height="14.5" as="geometry" />
        </mxCell>
        <mxCell id="3nuBFxr9cyL0pnOWT2aG-5" value="admission" style="shape=umlLifeline;perimeter=lifelinePerimeter;container=1;collapsible=0;recursiveResize=0;rounded=0;shadow=0;strokeWidth=1;align=center;" parent="1" vertex="1">
          <mxGeometry x="230" y="80" width="100" height="230" as="geometry" />
        </mxCell>
        <mxCell id="3nuBFxr9cyL0pnOWT2aG-6" value="" style="points=[];perimeter=orthogonalPerimeter;rounded=0;shadow=0;strokeWidth=1;" parent="3nuBFxr9cyL0pnOWT2aG-5" vertex="1">
          <mxGeometry x="45" y="80" width="10" height="130" as="geometry" />
        </mxCell>
        <mxCell id="3nuBFxr9cyL0pnOWT2aG-8" value="/admission/register" style="verticalAlign=bottom;endArrow=block;entryX=0;entryY=0;shadow=0;strokeWidth=2;fillColor=#a20025;strokeColor=#6F0000;" parent="1" source="3nuBFxr9cyL0pnOWT2aG-2" target="3nuBFxr9cyL0pnOWT2aG-6" edge="1">
          <mxGeometry x="0.0054" relative="1" as="geometry">
            <mxPoint x="275" y="160" as="sourcePoint" />
            <mxPoint as="offset" />
          </mxGeometry>
        </mxCell>
        <mxCell id="nrGuxkYsUYxpYzXSqwnY-3" value="DB api-server" style="shape=umlLifeline;perimeter=lifelinePerimeter;container=1;collapsible=0;recursiveResize=0;rounded=0;shadow=0;strokeWidth=1;" parent="1" vertex="1">
          <mxGeometry x="340" y="80" width="100" height="230" as="geometry" />
        </mxCell>
        <mxCell id="nrGuxkYsUYxpYzXSqwnY-18" value="" style="points=[];perimeter=orthogonalPerimeter;rounded=0;shadow=0;strokeWidth=1;" parent="nrGuxkYsUYxpYzXSqwnY-3" vertex="1">
          <mxGeometry x="45" y="105" width="10" height="20" as="geometry" />
        </mxCell>
        <mxCell id="nrGuxkYsUYxpYzXSqwnY-5" value="api-devices" style="shape=umlLifeline;perimeter=lifelinePerimeter;container=1;collapsible=0;recursiveResize=0;rounded=0;shadow=0;strokeWidth=1;" parent="1" vertex="1">
          <mxGeometry x="450" y="80" width="100" height="230" as="geometry" />
        </mxCell>
        <mxCell id="nrGuxkYsUYxpYzXSqwnY-6" value="" style="points=[];perimeter=orthogonalPerimeter;rounded=0;shadow=0;strokeWidth=1;" parent="nrGuxkYsUYxpYzXSqwnY-5" vertex="1">
          <mxGeometry x="45" y="150" width="10" height="50" as="geometry" />
        </mxCell>
        <mxCell id="nrGuxkYsUYxpYzXSqwnY-7" value="DB api-devices" style="shape=umlLifeline;perimeter=lifelinePerimeter;container=1;collapsible=0;recursiveResize=0;rounded=0;shadow=0;strokeWidth=1;" parent="1" vertex="1">
          <mxGeometry x="560" y="80" width="100" height="230" as="geometry" />
        </mxCell>
        <mxCell id="nrGuxkYsUYxpYzXSqwnY-24" value="" style="points=[];perimeter=orthogonalPerimeter;rounded=0;shadow=0;strokeWidth=1;" parent="nrGuxkYsUYxpYzXSqwnY-7" vertex="1">
          <mxGeometry x="45" y="169" width="10" height="21" as="geometry" />
        </mxCell>
        <mxCell id="ZK5r0ubRWXoprHP3Fj0z-5" value="" style="shape=image;verticalLabelPosition=bottom;labelBackgroundColor=default;verticalAlign=top;aspect=fixed;imageAspect=0;image=data:image/png,iVBORw0KGgoAAAANSUhEUgAAAgAAAAIAAgMAAACJFjxpAAAACXBIWXMAARCQAAEQkAGJrNK4AAAKT2lDQ1BQaG90b3Nob3AgSUNDIHByb2ZpbGUAAHjanVNnVFPpFj333vRCS4iAlEtvUhUIIFJCi4AUkSYqIQkQSoghodkVUcERRUUEG8igiAOOjoCMFVEsDIoK2AfkIaKOg6OIisr74Xuja9a89+bN/rXXPues852zzwfACAyWSDNRNYAMqUIeEeCDx8TG4eQuQIEKJHAAEAizZCFz/SMBAPh+PDwrIsAHvgABeNMLCADATZvAMByH/w/qQplcAYCEAcB0kThLCIAUAEB6jkKmAEBGAYCdmCZTAKAEAGDLY2LjAFAtAGAnf+bTAICd+Jl7AQBblCEVAaCRACATZYhEAGg7AKzPVopFAFgwABRmS8Q5ANgtADBJV2ZIALC3AMDOEAuyAAgMADBRiIUpAAR7AGDIIyN4AISZABRG8lc88SuuEOcqAAB4mbI8uSQ5RYFbCC1xB1dXLh4ozkkXKxQ2YQJhmkAuwnmZGTKBNA/g88wAAKCRFRHgg/P9eM4Ors7ONo62Dl8t6r8G/yJiYuP+5c+rcEAAAOF0ftH+LC+zGoA7BoBt/qIl7gRoXgugdfeLZrIPQLUAoOnaV/Nw+H48PEWhkLnZ2eXk5NhKxEJbYcpXff5nwl/AV/1s+X48/Pf14L7iJIEyXYFHBPjgwsz0TKUcz5IJhGLc5o9H/LcL//wd0yLESWK5WCoU41EScY5EmozzMqUiiUKSKcUl0v9k4t8s+wM+3zUAsGo+AXuRLahdYwP2SycQWHTA4vcAAPK7b8HUKAgDgGiD4c93/+8//UegJQCAZkmScQAAXkQkLlTKsz/HCAAARKCBKrBBG/TBGCzABhzBBdzBC/xgNoRCJMTCQhBCCmSAHHJgKayCQiiGzbAdKmAv1EAdNMBRaIaTcA4uwlW4Dj1wD/phCJ7BKLyBCQRByAgTYSHaiAFiilgjjggXmYX4IcFIBBKLJCDJiBRRIkuRNUgxUopUIFVIHfI9cgI5h1xGupE7yAAygvyGvEcxlIGyUT3UDLVDuag3GoRGogvQZHQxmo8WoJvQcrQaPYw2oefQq2gP2o8+Q8cwwOgYBzPEbDAuxsNCsTgsCZNjy7EirAyrxhqwVqwDu4n1Y8+xdwQSgUXACTYEd0IgYR5BSFhMWE7YSKggHCQ0EdoJNwkDhFHCJyKTqEu0JroR+cQYYjIxh1hILCPWEo8TLxB7iEPENyQSiUMyJ7mQAkmxpFTSEtJG0m5SI+ksqZs0SBojk8naZGuyBzmULCAryIXkneTD5DPkG+Qh8lsKnWJAcaT4U+IoUspqShnlEOU05QZlmDJBVaOaUt2ooVQRNY9aQq2htlKvUYeoEzR1mjnNgxZJS6WtopXTGmgXaPdpr+h0uhHdlR5Ol9BX0svpR+iX6AP0dwwNhhWDx4hnKBmbGAcYZxl3GK+YTKYZ04sZx1QwNzHrmOeZD5lvVVgqtip8FZHKCpVKlSaVGyovVKmqpqreqgtV81XLVI+pXlN9rkZVM1PjqQnUlqtVqp1Q61MbU2epO6iHqmeob1Q/pH5Z/YkGWcNMw09DpFGgsV/jvMYgC2MZs3gsIWsNq4Z1gTXEJrHN2Xx2KruY/R27iz2qqaE5QzNKM1ezUvOUZj8H45hx+Jx0TgnnKKeX836K3hTvKeIpG6Y0TLkxZVxrqpaXllirSKtRq0frvTau7aedpr1Fu1n7gQ5Bx0onXCdHZ4/OBZ3nU9lT3acKpxZNPTr1ri6qa6UbobtEd79up+6Ynr5egJ5Mb6feeb3n+hx9L/1U/W36p/VHDFgGswwkBtsMzhg8xTVxbzwdL8fb8VFDXcNAQ6VhlWGX4YSRudE8o9VGjUYPjGnGXOMk423GbcajJgYmISZLTepN7ppSTbmmKaY7TDtMx83MzaLN1pk1mz0x1zLnm+eb15vft2BaeFostqi2uGVJsuRaplnutrxuhVo5WaVYVVpds0atna0l1rutu6cRp7lOk06rntZnw7Dxtsm2qbcZsOXYBtuutm22fWFnYhdnt8Wuw+6TvZN9un2N/T0HDYfZDqsdWh1+c7RyFDpWOt6azpzuP33F9JbpL2dYzxDP2DPjthPLKcRpnVOb00dnF2e5c4PziIuJS4LLLpc+Lpsbxt3IveRKdPVxXeF60vWdm7Obwu2o26/uNu5p7ofcn8w0nymeWTNz0MPIQ+BR5dE/C5+VMGvfrH5PQ0+BZ7XnIy9jL5FXrdewt6V3qvdh7xc+9j5yn+M+4zw33jLeWV/MN8C3yLfLT8Nvnl+F30N/I/9k/3r/0QCngCUBZwOJgUGBWwL7+Hp8Ib+OPzrbZfay2e1BjKC5QRVBj4KtguXBrSFoyOyQrSH355jOkc5pDoVQfujW0Adh5mGLw34MJ4WHhVeGP45wiFga0TGXNXfR3ENz30T6RJZE3ptnMU85ry1KNSo+qi5qPNo3ujS6P8YuZlnM1VidWElsSxw5LiquNm5svt/87fOH4p3iC+N7F5gvyF1weaHOwvSFpxapLhIsOpZATIhOOJTwQRAqqBaMJfITdyWOCnnCHcJnIi/RNtGI2ENcKh5O8kgqTXqS7JG8NXkkxTOlLOW5hCepkLxMDUzdmzqeFpp2IG0yPTq9MYOSkZBxQqohTZO2Z+pn5mZ2y6xlhbL+xW6Lty8elQfJa7OQrAVZLQq2QqboVFoo1yoHsmdlV2a/zYnKOZarnivN7cyzytuQN5zvn//tEsIS4ZK2pYZLVy0dWOa9rGo5sjxxedsK4xUFK4ZWBqw8uIq2Km3VT6vtV5eufr0mek1rgV7ByoLBtQFr6wtVCuWFfevc1+1dT1gvWd+1YfqGnRs+FYmKrhTbF5cVf9go3HjlG4dvyr+Z3JS0qavEuWTPZtJm6ebeLZ5bDpaql+aXDm4N2dq0Dd9WtO319kXbL5fNKNu7g7ZDuaO/PLi8ZafJzs07P1SkVPRU+lQ27tLdtWHX+G7R7ht7vPY07NXbW7z3/T7JvttVAVVN1WbVZftJ+7P3P66Jqun4lvttXa1ObXHtxwPSA/0HIw6217nU1R3SPVRSj9Yr60cOxx++/p3vdy0NNg1VjZzG4iNwRHnk6fcJ3/ceDTradox7rOEH0x92HWcdL2pCmvKaRptTmvtbYlu6T8w+0dbq3nr8R9sfD5w0PFl5SvNUyWna6YLTk2fyz4ydlZ19fi753GDborZ752PO32oPb++6EHTh0kX/i+c7vDvOXPK4dPKy2+UTV7hXmq86X23qdOo8/pPTT8e7nLuarrlca7nuer21e2b36RueN87d9L158Rb/1tWeOT3dvfN6b/fF9/XfFt1+cif9zsu72Xcn7q28T7xf9EDtQdlD3YfVP1v+3Njv3H9qwHeg89HcR/cGhYPP/pH1jw9DBY+Zj8uGDYbrnjg+OTniP3L96fynQ89kzyaeF/6i/suuFxYvfvjV69fO0ZjRoZfyl5O/bXyl/erA6xmv28bCxh6+yXgzMV70VvvtwXfcdx3vo98PT+R8IH8o/2j5sfVT0Kf7kxmTk/8EA5jz/GMzLdsAAAAgY0hSTQAAeiUAAICDAAD5/wAAgOkAAHUwAADqYAAAOpgAABdvkl/FRgAAAAlQTFRFQovH////QovHKiDfRAAAAAJ0Uk5TAAB2k804AAAJBklEQVR42u3dQZIbNwwF0C4usc8leB7b5+ElvOeShVNmEZftzDRJAMSHWja4SlWs6ScSLc1I/MT19cXjSsCv//xyaQcxMzP32f9HAn5c+9fokYBPV58YQIDK0zECALwZYADxdnQkgEUDBiAWjo4BVBaPgQCwargDCitH8wWor8/cPAGG6zM3P4Dp+szNDcDG4QVg85j9xH9UAGZ3gQpQTwDjHEB8NPopoPDhaIcAPh5ngHoOGCeAwg6jHQDYZdgB5APoVkBhp9GMgOoFGDYAsdvoJgA7DguAPAHdAGDGTYEEQL6ArgYwA6dAACBvQFcCmJFTsAeQP6CrAMzQKdgCCgLQFICKAAw5ADIBv0/BDkAYQBcDGDSkAEIBuhBQUYAhBDCj12ANIBygiwAVBxgSQGHgaAIAIQFdAKhIwBAAGDr2gIIF9C2gYgFjC2AOWIMFoKABbQMgNKBvABUNGBsAc0QRzAEFD2hLAOEBfQmoeMB4NoA5pAqngBIBaAsARQD6AlAjAGMBYI4pgscCSgygPRdAMYA+BdQYwHgugIPGYwElCtCeCqAoQH8qoEYBRgKeCuCwkYCXA77fAr4lIAEJSEACEpCABLwa8OUvAuQvpfmn2VMB+QnJywH5MV1+VPv6T8uDboP+VMC3uO+Mvj8VEPa94RRQ/wrAWAAo5iaYA6L2D0wBUTso5oAaUgIzQIsClDmAQmpwAYjZSbUAxOwlmwF61G46WgAooASWgJAdlTPAiNpTWleAii+BKYADdrW267ouXgEidlZPAS1mb3lZAwh9Ey4AHb4GPwIEa0AFr8ACMGIyJnX+UW1MyoZ3gIpdgRWgRSStyhYAzpqtAD0ibUcLwIjIG9bVFxYRiUteARo+c1okAGTqdg3o+NwxLQEDn7yuSwDjs+e8BjR0+r5sAB19/gBtAAN9AkPdABh9BgXvAA17CkfZAjr2HBLaAgb2JJa6BTD2LBreAzryNB4SAAbyPKIqADDyRCaWADruTCoSAQbuVK4qAjDuXDKWATrqZDYSAgbqbLoqBHw4xMqrAH5bzh2gY84nJDGAnU6nmv6YLaD7nFE5PeRqCxg+p3ROjznb7yVrLueUTn/EHjCOz8lbnjQo2E3XPM6qnc6hADA8TuudPlqyn7A5nFc8LSIJYDic2DydPtGOynZ+ZvX0LhIBhuncVNmjZHtK2/G55dOXERlgHJ/cPjULd9V2zRHOTXPct3Rbr+wU+aE/7lwK6JfLqGbAcl7F4+aNTAwYmAlQbO12WIS7W0axt7wBFkC3uf0UwKeA4V4ASsBZGUxeM3X5guZcAGqAXTD9VVabsHAtQAuAna9vSFj4Xt8ScHC9vilh4Xl9W8SjudT/ElANv+6aOp5YExbj7PX3HCBchv1f0gcRj3H+9PkwYdFOnz4fJyz6cbud44TFME/+GqD5DGKcHHTvl7Bots+P8kCkjHg8N+Lx+oTFywE15ibIhEVGPDJhkQmLTFhkwuKxCYsRcGx3z4jHPuJB8BXYJCzwHRzouRGPlycsBrqFQnuTiAdhV2Af8SjYFRAkLEDvB+MNEhYD2s/nkkc8CFiCoojH6xMWFVaCwoRFgZWgNGFRUROwS1jAeqs1bcSjgiaANoABmoKmT1hUyAQoEhYFMgGahEVFTABtAQPR5tGYsCDvdwFZwqK5h0zGp++0pBGP4lyBsogHe3cb7dqERXMOmdx8qyiPeBTXBRBGPNi15203JCyaY+Prcfu9riph4VYAioSFX/PxSVZDl7AgpwJQJCyGU/vtPvt6ebuRqbkI5jkNdcKiHt8A2oSFQxf6sdhZtAd089Z+0U8QbGa7DgV9ubVKAOi27SmTKv74BCTb+czxBsmDJYBu36UytvtrRBsa9Xvk5A8UAbptp5DoYbItnZatWkO2u1AG6Or9UuJHCDe1KvdLKv65EDDk29aaboOddFuvS77h7iVMvK/YB8B2gEvIhA4AHotw9x6i2NqNWAAV4DjmUg8Bp2Vw/6Kl2l3fvAtAC2DvAlADhnMBqAF2wfSNU5uw6M7X1ycsut8NwMyWfEF3vb4l4NA9r29KWAyv9V8AquG3XUvCxBxw8Lq+PWHRHZZ/BRD8/enw9PksYdGPnz6fNtHop5c/b6IxDvIt/73DnzfRsB9OsALoPhQd9s+QsolGJiyyiUYmLDLikQmLJzfRoJASyIhHRjwy4vHsiAfhVyATFtlEI5toZBON5zfReGHComHX4JJGPAhZgtlE4+FNNDo+4kGcTTSyiUY20cgmGtKIR3F/Ebzeo4lG85+CZk1YkHcFZhMNfRMNcl0ASxON6ngHiJtotMuxDCwJi375lUG7/WJXFfEgrwIwN9GoTgWgaKIxrF8KrwpAlbC4fATTH6NtonG5XJ8UAL4cBEcJi3YSLtj/iPdsolHt99+nOXzXJhrFuvyXWxONanz6fk00iunp/2lNNEj65jefuNMmGkUx+bfT5tBE49q+8KzmzK2JxlVFez3ZCnDpIPHeTTRcQiZ8AnAImdARIJtoZBONwzL4Y5poNOfrZxON92yi0bzW3wrIJhqcTTSkkyD46+koYdHPEx6nCYtx9OyZ/5AmGh/rUfUZjmPCwrYLNJtoZMRjCghLWMwAYQmL5wJqzE0wB1BMDc4BUQmL5wKiIh5zQA2pwQWAQmpwAYhJWCwAMQmLFaBGlMAKQBElsAKEJCxWgJCExRJQA0pgCaCAElgCIiIeS0BExGMNIPwKrAH4JhobAD7isQMQfAU2AHgTjR0AnrDYAgi9AjtAQa/ADgBuoiEAFPAEbAHYJhoSAEFLUAC4sBMgAFRkCUoABVmCEgCwiYYQUJATIAHAmmiIAQU4ASIAqomGHFBwEyADYJpoaACQJhoqAAHeBVQAQBMNJaBAKlAB8G+ioQVciApUAQpiATQA5yYaBoBrEw0T4HIvAC2geBeAFnAimO030AHcmmiYAeYmGl8FQwSwCfrlBzA20XAE2JpoeAK090K7vAGWJhq+AEMTDW+AtBB+3v7uAG0TDQBA10QDAdgQ/v/iiwEs7oeP7z0owP003LzzAAEfC/L+XygBrxkJSEACEpCABCQgAQlIQAL+BSEPfz04kpehAAAAAElFTkSuQmCC;" parent="1" vertex="1">
          <mxGeometry x="595" y="60" width="30" height="32" as="geometry" />
        </mxCell>
        <mxCell id="nrGuxkYsUYxpYzXSqwnY-11" value="" style="shape=image;verticalLabelPosition=bottom;labelBackgroundColor=default;verticalAlign=top;aspect=fixed;imageAspect=0;image=data:image/png,iVBORw0KGgoAAAANSUhEUgAAAgAAAAIAAgMAAACJFjxpAAAACXBIWXMAARCQAAEQkAGJrNK4AAAKT2lDQ1BQaG90b3Nob3AgSUNDIHByb2ZpbGUAAHjanVNnVFPpFj333vRCS4iAlEtvUhUIIFJCi4AUkSYqIQkQSoghodkVUcERRUUEG8igiAOOjoCMFVEsDIoK2AfkIaKOg6OIisr74Xuja9a89+bN/rXXPues852zzwfACAyWSDNRNYAMqUIeEeCDx8TG4eQuQIEKJHAAEAizZCFz/SMBAPh+PDwrIsAHvgABeNMLCADATZvAMByH/w/qQplcAYCEAcB0kThLCIAUAEB6jkKmAEBGAYCdmCZTAKAEAGDLY2LjAFAtAGAnf+bTAICd+Jl7AQBblCEVAaCRACATZYhEAGg7AKzPVopFAFgwABRmS8Q5ANgtADBJV2ZIALC3AMDOEAuyAAgMADBRiIUpAAR7AGDIIyN4AISZABRG8lc88SuuEOcqAAB4mbI8uSQ5RYFbCC1xB1dXLh4ozkkXKxQ2YQJhmkAuwnmZGTKBNA/g88wAAKCRFRHgg/P9eM4Ors7ONo62Dl8t6r8G/yJiYuP+5c+rcEAAAOF0ftH+LC+zGoA7BoBt/qIl7gRoXgugdfeLZrIPQLUAoOnaV/Nw+H48PEWhkLnZ2eXk5NhKxEJbYcpXff5nwl/AV/1s+X48/Pf14L7iJIEyXYFHBPjgwsz0TKUcz5IJhGLc5o9H/LcL//wd0yLESWK5WCoU41EScY5EmozzMqUiiUKSKcUl0v9k4t8s+wM+3zUAsGo+AXuRLahdYwP2SycQWHTA4vcAAPK7b8HUKAgDgGiD4c93/+8//UegJQCAZkmScQAAXkQkLlTKsz/HCAAARKCBKrBBG/TBGCzABhzBBdzBC/xgNoRCJMTCQhBCCmSAHHJgKayCQiiGzbAdKmAv1EAdNMBRaIaTcA4uwlW4Dj1wD/phCJ7BKLyBCQRByAgTYSHaiAFiilgjjggXmYX4IcFIBBKLJCDJiBRRIkuRNUgxUopUIFVIHfI9cgI5h1xGupE7yAAygvyGvEcxlIGyUT3UDLVDuag3GoRGogvQZHQxmo8WoJvQcrQaPYw2oefQq2gP2o8+Q8cwwOgYBzPEbDAuxsNCsTgsCZNjy7EirAyrxhqwVqwDu4n1Y8+xdwQSgUXACTYEd0IgYR5BSFhMWE7YSKggHCQ0EdoJNwkDhFHCJyKTqEu0JroR+cQYYjIxh1hILCPWEo8TLxB7iEPENyQSiUMyJ7mQAkmxpFTSEtJG0m5SI+ksqZs0SBojk8naZGuyBzmULCAryIXkneTD5DPkG+Qh8lsKnWJAcaT4U+IoUspqShnlEOU05QZlmDJBVaOaUt2ooVQRNY9aQq2htlKvUYeoEzR1mjnNgxZJS6WtopXTGmgXaPdpr+h0uhHdlR5Ol9BX0svpR+iX6AP0dwwNhhWDx4hnKBmbGAcYZxl3GK+YTKYZ04sZx1QwNzHrmOeZD5lvVVgqtip8FZHKCpVKlSaVGyovVKmqpqreqgtV81XLVI+pXlN9rkZVM1PjqQnUlqtVqp1Q61MbU2epO6iHqmeob1Q/pH5Z/YkGWcNMw09DpFGgsV/jvMYgC2MZs3gsIWsNq4Z1gTXEJrHN2Xx2KruY/R27iz2qqaE5QzNKM1ezUvOUZj8H45hx+Jx0TgnnKKeX836K3hTvKeIpG6Y0TLkxZVxrqpaXllirSKtRq0frvTau7aedpr1Fu1n7gQ5Bx0onXCdHZ4/OBZ3nU9lT3acKpxZNPTr1ri6qa6UbobtEd79up+6Ynr5egJ5Mb6feeb3n+hx9L/1U/W36p/VHDFgGswwkBtsMzhg8xTVxbzwdL8fb8VFDXcNAQ6VhlWGX4YSRudE8o9VGjUYPjGnGXOMk423GbcajJgYmISZLTepN7ppSTbmmKaY7TDtMx83MzaLN1pk1mz0x1zLnm+eb15vft2BaeFostqi2uGVJsuRaplnutrxuhVo5WaVYVVpds0atna0l1rutu6cRp7lOk06rntZnw7Dxtsm2qbcZsOXYBtuutm22fWFnYhdnt8Wuw+6TvZN9un2N/T0HDYfZDqsdWh1+c7RyFDpWOt6azpzuP33F9JbpL2dYzxDP2DPjthPLKcRpnVOb00dnF2e5c4PziIuJS4LLLpc+Lpsbxt3IveRKdPVxXeF60vWdm7Obwu2o26/uNu5p7ofcn8w0nymeWTNz0MPIQ+BR5dE/C5+VMGvfrH5PQ0+BZ7XnIy9jL5FXrdewt6V3qvdh7xc+9j5yn+M+4zw33jLeWV/MN8C3yLfLT8Nvnl+F30N/I/9k/3r/0QCngCUBZwOJgUGBWwL7+Hp8Ib+OPzrbZfay2e1BjKC5QRVBj4KtguXBrSFoyOyQrSH355jOkc5pDoVQfujW0Adh5mGLw34MJ4WHhVeGP45wiFga0TGXNXfR3ENz30T6RJZE3ptnMU85ry1KNSo+qi5qPNo3ujS6P8YuZlnM1VidWElsSxw5LiquNm5svt/87fOH4p3iC+N7F5gvyF1weaHOwvSFpxapLhIsOpZATIhOOJTwQRAqqBaMJfITdyWOCnnCHcJnIi/RNtGI2ENcKh5O8kgqTXqS7JG8NXkkxTOlLOW5hCepkLxMDUzdmzqeFpp2IG0yPTq9MYOSkZBxQqohTZO2Z+pn5mZ2y6xlhbL+xW6Lty8elQfJa7OQrAVZLQq2QqboVFoo1yoHsmdlV2a/zYnKOZarnivN7cyzytuQN5zvn//tEsIS4ZK2pYZLVy0dWOa9rGo5sjxxedsK4xUFK4ZWBqw8uIq2Km3VT6vtV5eufr0mek1rgV7ByoLBtQFr6wtVCuWFfevc1+1dT1gvWd+1YfqGnRs+FYmKrhTbF5cVf9go3HjlG4dvyr+Z3JS0qavEuWTPZtJm6ebeLZ5bDpaql+aXDm4N2dq0Dd9WtO319kXbL5fNKNu7g7ZDuaO/PLi8ZafJzs07P1SkVPRU+lQ27tLdtWHX+G7R7ht7vPY07NXbW7z3/T7JvttVAVVN1WbVZftJ+7P3P66Jqun4lvttXa1ObXHtxwPSA/0HIw6217nU1R3SPVRSj9Yr60cOxx++/p3vdy0NNg1VjZzG4iNwRHnk6fcJ3/ceDTradox7rOEH0x92HWcdL2pCmvKaRptTmvtbYlu6T8w+0dbq3nr8R9sfD5w0PFl5SvNUyWna6YLTk2fyz4ydlZ19fi753GDborZ752PO32oPb++6EHTh0kX/i+c7vDvOXPK4dPKy2+UTV7hXmq86X23qdOo8/pPTT8e7nLuarrlca7nuer21e2b36RueN87d9L158Rb/1tWeOT3dvfN6b/fF9/XfFt1+cif9zsu72Xcn7q28T7xf9EDtQdlD3YfVP1v+3Njv3H9qwHeg89HcR/cGhYPP/pH1jw9DBY+Zj8uGDYbrnjg+OTniP3L96fynQ89kzyaeF/6i/suuFxYvfvjV69fO0ZjRoZfyl5O/bXyl/erA6xmv28bCxh6+yXgzMV70VvvtwXfcdx3vo98PT+R8IH8o/2j5sfVT0Kf7kxmTk/8EA5jz/GMzLdsAAAAgY0hSTQAAeiUAAICDAAD5/wAAgOkAAHUwAADqYAAAOpgAABdvkl/FRgAAAAlQTFRFQovH////QovHKiDfRAAAAAJ0Uk5TAAB2k804AAAJBklEQVR42u3dQZIbNwwF0C4usc8leB7b5+ElvOeShVNmEZftzDRJAMSHWja4SlWs6ScSLc1I/MT19cXjSsCv//xyaQcxMzP32f9HAn5c+9fokYBPV58YQIDK0zECALwZYADxdnQkgEUDBiAWjo4BVBaPgQCwargDCitH8wWor8/cPAGG6zM3P4Dp+szNDcDG4QVg85j9xH9UAGZ3gQpQTwDjHEB8NPopoPDhaIcAPh5ngHoOGCeAwg6jHQDYZdgB5APoVkBhp9GMgOoFGDYAsdvoJgA7DguAPAHdAGDGTYEEQL6ArgYwA6dAACBvQFcCmJFTsAeQP6CrAMzQKdgCCgLQFICKAAw5ADIBv0/BDkAYQBcDGDSkAEIBuhBQUYAhBDCj12ANIBygiwAVBxgSQGHgaAIAIQFdAKhIwBAAGDr2gIIF9C2gYgFjC2AOWIMFoKABbQMgNKBvABUNGBsAc0QRzAEFD2hLAOEBfQmoeMB4NoA5pAqngBIBaAsARQD6AlAjAGMBYI4pgscCSgygPRdAMYA+BdQYwHgugIPGYwElCtCeCqAoQH8qoEYBRgKeCuCwkYCXA77fAr4lIAEJSEACEpCABLwa8OUvAuQvpfmn2VMB+QnJywH5MV1+VPv6T8uDboP+VMC3uO+Mvj8VEPa94RRQ/wrAWAAo5iaYA6L2D0wBUTso5oAaUgIzQIsClDmAQmpwAYjZSbUAxOwlmwF61G46WgAooASWgJAdlTPAiNpTWleAii+BKYADdrW267ouXgEidlZPAS1mb3lZAwh9Ey4AHb4GPwIEa0AFr8ACMGIyJnX+UW1MyoZ3gIpdgRWgRSStyhYAzpqtAD0ibUcLwIjIG9bVFxYRiUteARo+c1okAGTqdg3o+NwxLQEDn7yuSwDjs+e8BjR0+r5sAB19/gBtAAN9AkPdABh9BgXvAA17CkfZAjr2HBLaAgb2JJa6BTD2LBreAzryNB4SAAbyPKIqADDyRCaWADruTCoSAQbuVK4qAjDuXDKWATrqZDYSAgbqbLoqBHw4xMqrAH5bzh2gY84nJDGAnU6nmv6YLaD7nFE5PeRqCxg+p3ROjznb7yVrLueUTn/EHjCOz8lbnjQo2E3XPM6qnc6hADA8TuudPlqyn7A5nFc8LSIJYDic2DydPtGOynZ+ZvX0LhIBhuncVNmjZHtK2/G55dOXERlgHJ/cPjULd9V2zRHOTXPct3Rbr+wU+aE/7lwK6JfLqGbAcl7F4+aNTAwYmAlQbO12WIS7W0axt7wBFkC3uf0UwKeA4V4ASsBZGUxeM3X5guZcAGqAXTD9VVabsHAtQAuAna9vSFj4Xt8ScHC9vilh4Xl9W8SjudT/ElANv+6aOp5YExbj7PX3HCBchv1f0gcRj3H+9PkwYdFOnz4fJyz6cbud44TFME/+GqD5DGKcHHTvl7Bots+P8kCkjHg8N+Lx+oTFywE15ibIhEVGPDJhkQmLTFhkwuKxCYsRcGx3z4jHPuJB8BXYJCzwHRzouRGPlycsBrqFQnuTiAdhV2Af8SjYFRAkLEDvB+MNEhYD2s/nkkc8CFiCoojH6xMWFVaCwoRFgZWgNGFRUROwS1jAeqs1bcSjgiaANoABmoKmT1hUyAQoEhYFMgGahEVFTABtAQPR5tGYsCDvdwFZwqK5h0zGp++0pBGP4lyBsogHe3cb7dqERXMOmdx8qyiPeBTXBRBGPNi15203JCyaY+Prcfu9riph4VYAioSFX/PxSVZDl7AgpwJQJCyGU/vtPvt6ebuRqbkI5jkNdcKiHt8A2oSFQxf6sdhZtAd089Z+0U8QbGa7DgV9ubVKAOi27SmTKv74BCTb+czxBsmDJYBu36UytvtrRBsa9Xvk5A8UAbptp5DoYbItnZatWkO2u1AG6Or9UuJHCDe1KvdLKv65EDDk29aaboOddFuvS77h7iVMvK/YB8B2gEvIhA4AHotw9x6i2NqNWAAV4DjmUg8Bp2Vw/6Kl2l3fvAtAC2DvAlADhnMBqAF2wfSNU5uw6M7X1ycsut8NwMyWfEF3vb4l4NA9r29KWAyv9V8AquG3XUvCxBxw8Lq+PWHRHZZ/BRD8/enw9PksYdGPnz6fNtHop5c/b6IxDvIt/73DnzfRsB9OsALoPhQd9s+QsolGJiyyiUYmLDLikQmLJzfRoJASyIhHRjwy4vHsiAfhVyATFtlEI5toZBON5zfReGHComHX4JJGPAhZgtlE4+FNNDo+4kGcTTSyiUY20cgmGtKIR3F/Ebzeo4lG85+CZk1YkHcFZhMNfRMNcl0ASxON6ngHiJtotMuxDCwJi375lUG7/WJXFfEgrwIwN9GoTgWgaKIxrF8KrwpAlbC4fATTH6NtonG5XJ8UAL4cBEcJi3YSLtj/iPdsolHt99+nOXzXJhrFuvyXWxONanz6fk00iunp/2lNNEj65jefuNMmGkUx+bfT5tBE49q+8KzmzK2JxlVFez3ZCnDpIPHeTTRcQiZ8AnAImdARIJtoZBONwzL4Y5poNOfrZxON92yi0bzW3wrIJhqcTTSkkyD46+koYdHPEx6nCYtx9OyZ/5AmGh/rUfUZjmPCwrYLNJtoZMRjCghLWMwAYQmL5wJqzE0wB1BMDc4BUQmL5wKiIh5zQA2pwQWAQmpwAYhJWCwAMQmLFaBGlMAKQBElsAKEJCxWgJCExRJQA0pgCaCAElgCIiIeS0BExGMNIPwKrAH4JhobAD7isQMQfAU2AHgTjR0AnrDYAgi9AjtAQa/ADgBuoiEAFPAEbAHYJhoSAEFLUAC4sBMgAFRkCUoABVmCEgCwiYYQUJATIAHAmmiIAQU4ASIAqomGHFBwEyADYJpoaACQJhoqAAHeBVQAQBMNJaBAKlAB8G+ioQVciApUAQpiATQA5yYaBoBrEw0T4HIvAC2geBeAFnAimO030AHcmmiYAeYmGl8FQwSwCfrlBzA20XAE2JpoeAK090K7vAGWJhq+AEMTDW+AtBB+3v7uAG0TDQBA10QDAdgQ/v/iiwEs7oeP7z0owP003LzzAAEfC/L+XygBrxkJSEACEpCABCQgAQlIQAL+BSEPfz04kpehAAAAAElFTkSuQmCC;" parent="1" vertex="1">
          <mxGeometry x="375" y="60" width="30" height="32" as="geometry" />
        </mxCell>
        <mxCell id="nrGuxkYsUYxpYzXSqwnY-13" value="" style="shape=image;verticalLabelPosition=bottom;labelBackgroundColor=default;verticalAlign=top;aspect=fixed;imageAspect=0;image=https://seeklogo.com/images/G/go-logo-046185B647-seeklogo.com.png;" parent="1" vertex="1">
          <mxGeometry x="268.95000000000005" y="61" width="22.1" height="30" as="geometry" />
        </mxCell>
        <mxCell id="nrGuxkYsUYxpYzXSqwnY-15" value="" style="shape=image;verticalLabelPosition=bottom;labelBackgroundColor=default;verticalAlign=top;aspect=fixed;imageAspect=0;image=https://seeklogo.com/images/G/go-logo-046185B647-seeklogo.com.png;" parent="1" vertex="1">
          <mxGeometry x="488.95000000000005" y="60" width="22.1" height="30" as="geometry" />
        </mxCell>
        <mxCell id="nrGuxkYsUYxpYzXSqwnY-17" value="insert" style="verticalAlign=bottom;endArrow=block;shadow=0;strokeWidth=2;exitX=0.993;exitY=0.387;exitDx=0;exitDy=0;exitPerimeter=0;entryX=-0.157;entryY=0.096;entryDx=0;entryDy=0;entryPerimeter=0;dashed=1;" parent="1" edge="1">
          <mxGeometry relative="1" as="geometry">
            <mxPoint x="284.93000000000006" y="186.08999999999992" as="sourcePoint" />
            <mxPoint x="389.21500000000015" y="185.91999999999996" as="targetPoint" />
          </mxGeometry>
        </mxCell>
        <mxCell id="nrGuxkYsUYxpYzXSqwnY-19" style="edgeStyle=orthogonalEdgeStyle;rounded=0;orthogonalLoop=1;jettySize=auto;html=1;exitX=-0.079;exitY=0.889;exitDx=0;exitDy=0;exitPerimeter=0;strokeWidth=2;dashed=1;" parent="1" source="nrGuxkYsUYxpYzXSqwnY-18" target="3nuBFxr9cyL0pnOWT2aG-6" edge="1">
          <mxGeometry relative="1" as="geometry">
            <Array as="points">
              <mxPoint x="310" y="203" />
              <mxPoint x="310" y="203" />
            </Array>
          </mxGeometry>
        </mxCell>
        <mxCell id="nrGuxkYsUYxpYzXSqwnY-20" style="edgeStyle=orthogonalEdgeStyle;rounded=0;orthogonalLoop=1;jettySize=auto;html=1;fillColor=#008a00;strokeColor=#005700;strokeWidth=2;" parent="1" source="3nuBFxr9cyL0pnOWT2aG-6" target="nrGuxkYsUYxpYzXSqwnY-5" edge="1">
          <mxGeometry relative="1" as="geometry">
            <Array as="points">
              <mxPoint x="320" y="230" />
              <mxPoint x="320" y="230" />
            </Array>
          </mxGeometry>
        </mxCell>
        <mxCell id="nrGuxkYsUYxpYzXSqwnY-26" value="gRPC&lt;br&gt;Register" style="edgeLabel;html=1;align=center;verticalAlign=middle;resizable=0;points=[];" parent="nrGuxkYsUYxpYzXSqwnY-20" vertex="1" connectable="0">
          <mxGeometry x="-0.1082" y="2" relative="1" as="geometry">
            <mxPoint y="1" as="offset" />
          </mxGeometry>
        </mxCell>
        <mxCell id="nrGuxkYsUYxpYzXSqwnY-25" style="edgeStyle=orthogonalEdgeStyle;rounded=0;orthogonalLoop=1;jettySize=auto;html=1;entryX=0.636;entryY=0.068;entryDx=0;entryDy=0;entryPerimeter=0;dashed=1;strokeWidth=2;" parent="1" source="nrGuxkYsUYxpYzXSqwnY-6" target="nrGuxkYsUYxpYzXSqwnY-24" edge="1">
          <mxGeometry relative="1" as="geometry">
            <Array as="points">
              <mxPoint x="555" y="251" />
            </Array>
          </mxGeometry>
        </mxCell>
        <mxCell id="FoOjUYDXDErWkPpTb1JA-1" value="insert" style="edgeLabel;html=1;align=center;verticalAlign=middle;resizable=0;points=[];" parent="nrGuxkYsUYxpYzXSqwnY-25" vertex="1" connectable="0">
          <mxGeometry x="0.1282" y="3" relative="1" as="geometry">
            <mxPoint as="offset" />
          </mxGeometry>
        </mxCell>
        <mxCell id="nrGuxkYsUYxpYzXSqwnY-27" style="edgeStyle=orthogonalEdgeStyle;rounded=0;orthogonalLoop=1;jettySize=auto;html=1;strokeWidth=2;dashed=1;" parent="1" source="nrGuxkYsUYxpYzXSqwnY-24" edge="1">
          <mxGeometry relative="1" as="geometry">
            <mxPoint x="500" y="270" as="targetPoint" />
            <Array as="points">
              <mxPoint x="560" y="270" />
              <mxPoint x="560" y="270" />
            </Array>
          </mxGeometry>
        </mxCell>
        <mxCell id="FoOjUYDXDErWkPpTb1JA-2" style="edgeStyle=orthogonalEdgeStyle;rounded=0;orthogonalLoop=1;jettySize=auto;html=1;fillColor=#008a00;strokeColor=#005700;strokeWidth=2;entryX=0.982;entryY=0.913;entryDx=0;entryDy=0;entryPerimeter=0;" parent="1" source="nrGuxkYsUYxpYzXSqwnY-6" target="3nuBFxr9cyL0pnOWT2aG-6" edge="1">
          <mxGeometry relative="1" as="geometry">
            <mxPoint x="270" y="310" as="targetPoint" />
            <Array as="points">
              <mxPoint x="285" y="279" />
            </Array>
          </mxGeometry>
        </mxCell>
        <mxCell id="FlS0quLJmR9Mo8Llc2XU-1" style="edgeStyle=orthogonalEdgeStyle;rounded=0;orthogonalLoop=1;jettySize=auto;html=1;entryX=0.949;entryY=0.904;entryDx=0;entryDy=0;entryPerimeter=0;strokeWidth=2;fillColor=#a20025;strokeColor=#6F0000;exitX=-0.105;exitY=0.966;exitDx=0;exitDy=0;exitPerimeter=0;" parent="1" source="3nuBFxr9cyL0pnOWT2aG-6" target="3nuBFxr9cyL0pnOWT2aG-2" edge="1">
          <mxGeometry relative="1" as="geometry">
            <Array as="points">
              <mxPoint x="225" y="286" />
              <mxPoint x="225" y="286" />
            </Array>
          </mxGeometry>
        </mxCell>
        <mxCell id="yz0LQDZwbWJzXK_1p8FE-1" value="" style="dashed=0;outlineConnect=0;html=1;align=center;labelPosition=center;verticalLabelPosition=bottom;verticalAlign=top;shape=mxgraph.weblogos.arduino;fillColor=#36868D;strokeColor=none" parent="1" vertex="1">
          <mxGeometry x="96" y="132" width="40.02" height="19" as="geometry" />
        </mxCell>
      </root>
    </mxGraphModel>
  </diagram>
</mxfile>
